<svg width="32" height="26" viewBox="0 0 32 26" fill="none" xmlns="http://www.w3.org/2000/svg">
<g id="folders 1" clip-path="url(#clip0_1376_3748)">
<path id="Vector" opacity="0.4" d="M31.9999 5.6V16.8C31.9999 17.4365 31.747 18.047 31.297 18.4971C30.8469 18.9471 30.2364 19.2 29.5999 19.2H8.7999C8.16338 19.2 7.55293 18.9471 7.10285 18.4971C6.65276 18.047 6.3999 17.4365 6.3999 16.8V2.4C6.3999 1.76348 6.65276 1.15303 7.10285 0.702944C7.55293 0.252856 8.16338 0 8.7999 0L16.7999 0L19.9999 3.2H29.5999C30.2364 3.2 30.8469 3.45286 31.297 3.90294C31.747 4.35303 31.9999 4.96348 31.9999 5.6Z" fill="#00E5FF"/>
<path id="Vector_2" d="M2.4 25.6004C1.76348 25.6004 1.15303 25.3475 0.702944 24.8974C0.252856 24.4474 0 23.8369 0 23.2004L0 8.80039C0 8.16387 0.252856 7.55342 0.702944 7.10333C1.15303 6.65325 1.76348 6.40039 2.4 6.40039H4.8V16.8004C4.80119 17.8609 5.223 18.8776 5.97289 19.6275C6.72278 20.3774 7.7395 20.7992 8.8 20.8004H25.6V23.2004C25.6 23.8369 25.3471 24.4474 24.8971 24.8974C24.447 25.3475 23.8365 25.6004 23.2 25.6004H2.4Z" fill="#00E5FF"/>
</g>
<defs>
<clipPath id="clip0_1376_3748">
<rect width="32" height="25.6" fill="white"/>
</clipPath>
</defs>
</svg>
