<svg width="32" height="32" viewBox="0 0 32 32" fill="none" xmlns="http://www.w3.org/2000/svg">
<g id="link 1" clip-path="url(#clip0_1376_3742)">
<path id="Vector" opacity="0.4" d="M2.77832 15.787L5.0977 13.4683C5.7127 12.8533 6.77145 13.262 6.80332 14.1308C6.84367 15.2527 7.0477 16.3628 7.40895 17.4258C7.47074 17.6036 7.48135 17.7951 7.43958 17.9787C7.39781 18.1622 7.30534 18.3303 7.1727 18.4639L6.35457 19.282C4.60457 21.032 4.54832 23.8858 6.2827 25.657C6.69931 26.0811 7.19575 26.4185 7.7434 26.6499C8.29105 26.8812 8.87907 27.0018 9.47356 27.0047C10.068 27.0077 10.6572 26.893 11.2072 26.6671C11.7571 26.4413 12.2569 26.1088 12.6777 25.6889L16.8752 21.487C17.7185 20.6432 18.1922 19.499 18.1922 18.3061C18.1922 17.1131 17.7185 15.969 16.8752 15.1251C16.6761 14.9278 16.4598 14.7485 16.2289 14.5895C16.1001 14.5013 15.9937 14.3841 15.9182 14.2473C15.8428 14.1106 15.8005 13.9581 15.7946 13.802C15.7812 13.4574 15.8395 13.1137 15.9658 12.7928C16.0921 12.4719 16.2836 12.1807 16.5283 11.9376L17.8446 10.6251C18.0119 10.4586 18.2327 10.3565 18.4679 10.3366C18.7031 10.3167 18.9379 10.3804 19.1308 10.5164C20.2668 11.3095 21.2155 12.3415 21.9107 13.5399C22.6058 14.7383 23.0306 16.0743 23.1551 17.4541C23.2796 18.834 23.1009 20.2243 22.6315 21.5278C22.1621 22.8313 21.4133 24.0165 20.4377 25.0001L20.4152 25.0233L16.2152 29.2233C12.5108 32.9276 6.48395 32.927 2.7777 29.2233C-0.928555 25.5195 -0.926054 19.4908 2.77832 15.787Z" fill="#00E5FF"/>
<path id="Vector_2" d="M25.6455 12.7183C27.3955 10.9683 27.4517 8.11457 25.7173 6.34332C25.3006 5.9193 24.8041 5.58197 24.2564 5.35076C23.7087 5.11956 23.1207 4.99906 22.5262 4.99621C21.9317 4.99336 21.3426 5.10823 20.7927 5.33418C20.2428 5.56012 19.7431 5.89269 19.3223 6.3127L15.1248 10.5133C14.2816 11.3572 13.8079 12.5013 13.8079 13.6943C13.8079 14.8872 14.2816 16.0314 15.1248 16.8752C15.3239 17.0725 15.5402 17.2518 15.7711 17.4108C15.8998 17.4991 16.0061 17.6163 16.0814 17.7531C16.1568 17.8898 16.199 18.0423 16.2048 18.1983C16.2185 18.5429 16.1604 18.8866 16.0342 19.2076C15.908 19.5285 15.7164 19.8197 15.4717 20.0627L14.1555 21.3783C13.988 21.5447 13.7673 21.6468 13.5321 21.6667C13.2969 21.6866 13.0622 21.623 12.8692 21.4871C11.7327 20.6939 10.7835 19.6619 10.088 18.4632C9.39253 17.2645 8.96764 15.9281 8.84312 14.5479C8.71861 13.1676 8.89749 11.7768 9.36721 10.473C9.83694 9.16921 10.5862 7.9839 11.5623 7.0002L11.5848 6.97707L15.7848 2.77707C19.4892 -0.927305 25.5161 -0.92668 29.2223 2.77707C32.9286 6.48082 32.9267 12.5083 29.2223 16.2146L26.903 18.5333C26.288 19.1483 25.2292 18.7396 25.1973 17.8708C25.157 16.7489 24.953 15.6388 24.5917 14.5758C24.5299 14.398 24.5193 14.2064 24.5611 14.0229C24.6028 13.8394 24.6953 13.6712 24.828 13.5377L25.6455 12.7183Z" fill="#00E5FF"/>
</g>
<defs>
<clipPath id="clip0_1376_3742">
<rect width="32" height="32" fill="white"/>
</clipPath>
</defs>
</svg>
