<svg width="32" height="29" viewBox="0 0 32 29" fill="none" xmlns="http://www.w3.org/2000/svg">
<g id="mail-bulk 1" clip-path="url(#clip0_1376_3745)">
<path id="Vector" opacity="0.4" d="M16 14.2221H1.77778C1.30628 14.2221 0.854097 14.4094 0.520699 14.7428C0.187301 15.0762 0 15.5284 0 15.9999L0 16.8888C1.42222 17.9554 1.24444 17.9554 6.4 21.6888C6.93333 22.0443 8 23.111 8.88889 23.111C9.77778 23.111 10.8444 22.0443 11.3778 21.8666C16.5333 18.1332 16.3556 18.1332 17.7778 17.0666V15.9999C17.7778 15.5284 17.5905 15.0762 17.2571 14.7428C16.9237 14.4094 16.4715 14.2221 16 14.2221ZM8.88889 24.8888C7.46667 24.8888 6.04444 23.6443 5.33333 23.111C1.77778 20.6221 0.711111 19.7332 0 19.1999V26.6666C0 27.1381 0.187301 27.5902 0.520699 27.9236C0.854097 28.257 1.30628 28.4443 1.77778 28.4443H16C16.4715 28.4443 16.9237 28.257 17.2571 27.9236C17.5905 27.5902 17.7778 27.1381 17.7778 26.6666V19.1999C17.0667 19.7332 16 20.6221 12.4444 23.111C11.7333 23.6443 10.3111 24.8888 8.88889 24.8888ZM24.8889 12.4443V15.9999H28.4444V12.4443H24.8889Z" fill="#00E5FF"/>
<path id="Vector_2" d="M30.2223 8.88889H12.4446C11.9731 8.88889 11.5209 9.07619 11.1875 9.40959C10.8541 9.74299 10.6668 10.1952 10.6668 10.6667V12.4444H16.0001C16.8834 12.4454 17.7348 12.7747 18.3889 13.3684C19.043 13.962 19.4531 14.7776 19.5396 15.6567L19.5557 15.6444V23.1111H30.2223C30.6938 23.1111 31.146 22.9238 31.4794 22.5904C31.8128 22.257 32.0001 21.8048 32.0001 21.3333V10.6667C32.0001 10.1952 31.8128 9.74299 31.4794 9.40959C31.146 9.07619 30.6938 8.88889 30.2223 8.88889ZM28.4446 16H24.889V12.4444H28.4446V16ZM24.889 7.11111V1.77778C24.889 1.30628 24.7017 0.854097 24.3683 0.520699C24.0349 0.187301 23.5827 0 23.1112 0L5.33344 0C4.86195 0 4.40976 0.187301 4.07636 0.520699C3.74297 0.854097 3.55566 1.30628 3.55566 1.77778V12.4444H8.889V10.6667C8.89003 9.72399 9.26496 8.82022 9.93153 8.15365C10.5981 7.48707 11.5019 7.11214 12.4446 7.11111H24.889Z" fill="#00E5FF"/>
</g>
<defs>
<clipPath id="clip0_1376_3745">
<rect width="32" height="28.4444" fill="white"/>
</clipPath>
</defs>
</svg>
